<mxfile host="app.diagrams.net" modified="2022-03-14T07:20:21.208Z" agent="5.0 (Macintosh; Intel Mac OS X 10_15_7) AppleWebKit/537.36 (KHTML, like Gecko) Chrome/99.0.4844.51 Safari/537.36" etag="pkvF7P5VfZtJ4FykH7lP" version="17.1.2" type="github">
  <diagram id="nqzb5fVuoGjnNKN030gF" name="Page-1">
    <mxGraphModel dx="1609" dy="1789" grid="1" gridSize="10" guides="1" tooltips="1" connect="1" arrows="1" fold="1" page="1" pageScale="1" pageWidth="827" pageHeight="1169" math="0" shadow="0">
      <root>
        <mxCell id="0" />
        <mxCell id="1" parent="0" />
        <mxCell id="5dKNIXLteJBeE0hhN2YT-3" value="Pracownik medyczny" style="shape=umlActor;verticalLabelPosition=bottom;verticalAlign=top;html=1;outlineConnect=0;" vertex="1" parent="1">
          <mxGeometry x="690" y="440" width="30" height="60" as="geometry" />
        </mxCell>
        <mxCell id="5dKNIXLteJBeE0hhN2YT-9" value="Lekarz" style="shape=umlActor;verticalLabelPosition=bottom;verticalAlign=top;html=1;outlineConnect=0;" vertex="1" parent="1">
          <mxGeometry x="690" y="140" width="30" height="60" as="geometry" />
        </mxCell>
        <mxCell id="5dKNIXLteJBeE0hhN2YT-10" value="System zewnętrzny &lt;br&gt;(bankowy system płatności)" style="shape=umlActor;verticalLabelPosition=bottom;verticalAlign=top;html=1;outlineConnect=0;" vertex="1" parent="1">
          <mxGeometry x="690" y="690" width="30" height="60" as="geometry" />
        </mxCell>
        <mxCell id="5dKNIXLteJBeE0hhN2YT-17" value="Telekonsultacja" style="ellipse;whiteSpace=wrap;html=1;" vertex="1" parent="1">
          <mxGeometry x="220" y="110" width="120" height="80" as="geometry" />
        </mxCell>
        <mxCell id="5dKNIXLteJBeE0hhN2YT-18" value="" style="endArrow=none;html=1;rounded=0;entryX=0.008;entryY=0.625;entryDx=0;entryDy=0;entryPerimeter=0;" edge="1" parent="1" source="5dKNIXLteJBeE0hhN2YT-1" target="5dKNIXLteJBeE0hhN2YT-17">
          <mxGeometry width="50" height="50" relative="1" as="geometry">
            <mxPoint x="240" y="330" as="sourcePoint" />
            <mxPoint x="290" y="280" as="targetPoint" />
          </mxGeometry>
        </mxCell>
        <mxCell id="5dKNIXLteJBeE0hhN2YT-21" value="Zmiana terminu telekonsultacji" style="ellipse;whiteSpace=wrap;html=1;" vertex="1" parent="1">
          <mxGeometry x="220" y="260" width="120" height="80" as="geometry" />
        </mxCell>
        <mxCell id="5dKNIXLteJBeE0hhN2YT-22" value="Anulowanie telekonsultacji" style="ellipse;whiteSpace=wrap;html=1;" vertex="1" parent="1">
          <mxGeometry x="360" y="280" width="120" height="80" as="geometry" />
        </mxCell>
        <mxCell id="5dKNIXLteJBeE0hhN2YT-27" value="" style="endArrow=none;dashed=1;html=1;rounded=0;" edge="1" parent="1" source="5dKNIXLteJBeE0hhN2YT-21" target="5dKNIXLteJBeE0hhN2YT-23">
          <mxGeometry width="50" height="50" relative="1" as="geometry">
            <mxPoint x="310" y="370" as="sourcePoint" />
            <mxPoint x="360" y="320" as="targetPoint" />
          </mxGeometry>
        </mxCell>
        <mxCell id="5dKNIXLteJBeE0hhN2YT-70" value="Extend" style="edgeLabel;html=1;align=center;verticalAlign=middle;resizable=0;points=[];" vertex="1" connectable="0" parent="5dKNIXLteJBeE0hhN2YT-27">
          <mxGeometry x="-0.0808" relative="1" as="geometry">
            <mxPoint as="offset" />
          </mxGeometry>
        </mxCell>
        <mxCell id="5dKNIXLteJBeE0hhN2YT-29" value="" style="endArrow=none;html=1;rounded=0;entryX=0;entryY=0.5;entryDx=0;entryDy=0;" edge="1" parent="1" source="5dKNIXLteJBeE0hhN2YT-1" target="5dKNIXLteJBeE0hhN2YT-21">
          <mxGeometry width="50" height="50" relative="1" as="geometry">
            <mxPoint x="160" y="290" as="sourcePoint" />
            <mxPoint x="210" y="240" as="targetPoint" />
          </mxGeometry>
        </mxCell>
        <mxCell id="5dKNIXLteJBeE0hhN2YT-30" value="Przyjęcie płatności" style="ellipse;whiteSpace=wrap;html=1;" vertex="1" parent="1">
          <mxGeometry x="500" y="680" width="120" height="80" as="geometry" />
        </mxCell>
        <mxCell id="5dKNIXLteJBeE0hhN2YT-34" value="" style="endArrow=none;html=1;rounded=0;" edge="1" parent="1" source="5dKNIXLteJBeE0hhN2YT-30" target="5dKNIXLteJBeE0hhN2YT-10">
          <mxGeometry width="50" height="50" relative="1" as="geometry">
            <mxPoint x="500" y="110" as="sourcePoint" />
            <mxPoint x="390" y="260" as="targetPoint" />
          </mxGeometry>
        </mxCell>
        <mxCell id="5dKNIXLteJBeE0hhN2YT-35" value="" style="endArrow=none;dashed=1;html=1;rounded=0;entryX=0.992;entryY=0.638;entryDx=0;entryDy=0;entryPerimeter=0;exitX=0.5;exitY=0;exitDx=0;exitDy=0;" edge="1" parent="1" source="5dKNIXLteJBeE0hhN2YT-23" target="5dKNIXLteJBeE0hhN2YT-17">
          <mxGeometry width="50" height="50" relative="1" as="geometry">
            <mxPoint x="410" y="310" as="sourcePoint" />
            <mxPoint x="460" y="260" as="targetPoint" />
          </mxGeometry>
        </mxCell>
        <mxCell id="5dKNIXLteJBeE0hhN2YT-36" value="" style="endArrow=none;dashed=1;html=1;rounded=0;exitX=0.917;exitY=0.75;exitDx=0;exitDy=0;exitPerimeter=0;entryX=0;entryY=0.5;entryDx=0;entryDy=0;" edge="1" parent="1" source="5dKNIXLteJBeE0hhN2YT-21" target="5dKNIXLteJBeE0hhN2YT-22">
          <mxGeometry width="50" height="50" relative="1" as="geometry">
            <mxPoint x="410" y="310" as="sourcePoint" />
            <mxPoint x="460" y="260" as="targetPoint" />
          </mxGeometry>
        </mxCell>
        <mxCell id="5dKNIXLteJBeE0hhN2YT-72" value="Extend" style="edgeLabel;html=1;align=center;verticalAlign=middle;resizable=0;points=[];" vertex="1" connectable="0" parent="5dKNIXLteJBeE0hhN2YT-36">
          <mxGeometry x="0.1243" y="1" relative="1" as="geometry">
            <mxPoint as="offset" />
          </mxGeometry>
        </mxCell>
        <mxCell id="5dKNIXLteJBeE0hhN2YT-41" value="1 dzień przed &lt;br&gt;terminiem wizyty" style="shape=umlActor;verticalLabelPosition=bottom;verticalAlign=top;html=1;outlineConnect=0;" vertex="1" parent="1">
          <mxGeometry x="690" y="570" width="30" height="60" as="geometry" />
        </mxCell>
        <mxCell id="5dKNIXLteJBeE0hhN2YT-44" value="Powiadomienie o terminie wizyty" style="ellipse;whiteSpace=wrap;html=1;" vertex="1" parent="1">
          <mxGeometry x="500" y="560" width="120" height="80" as="geometry" />
        </mxCell>
        <mxCell id="5dKNIXLteJBeE0hhN2YT-45" value="" style="endArrow=none;html=1;rounded=0;" edge="1" parent="1" source="5dKNIXLteJBeE0hhN2YT-44" target="5dKNIXLteJBeE0hhN2YT-41">
          <mxGeometry width="50" height="50" relative="1" as="geometry">
            <mxPoint x="470" y="500" as="sourcePoint" />
            <mxPoint x="520" y="450" as="targetPoint" />
          </mxGeometry>
        </mxCell>
        <mxCell id="5dKNIXLteJBeE0hhN2YT-46" value="Historia pacjenta - edycja" style="ellipse;whiteSpace=wrap;html=1;" vertex="1" parent="1">
          <mxGeometry x="500" y="180" width="120" height="80" as="geometry" />
        </mxCell>
        <mxCell id="5dKNIXLteJBeE0hhN2YT-47" value="" style="endArrow=none;html=1;rounded=0;" edge="1" parent="1" source="5dKNIXLteJBeE0hhN2YT-46" target="5dKNIXLteJBeE0hhN2YT-9">
          <mxGeometry width="50" height="50" relative="1" as="geometry">
            <mxPoint x="470" y="410" as="sourcePoint" />
            <mxPoint x="520" y="360" as="targetPoint" />
          </mxGeometry>
        </mxCell>
        <mxCell id="5dKNIXLteJBeE0hhN2YT-49" value="" style="endArrow=none;html=1;rounded=0;" edge="1" parent="1" source="5dKNIXLteJBeE0hhN2YT-17" target="5dKNIXLteJBeE0hhN2YT-9">
          <mxGeometry width="50" height="50" relative="1" as="geometry">
            <mxPoint x="470" y="410" as="sourcePoint" />
            <mxPoint x="520" y="360" as="targetPoint" />
          </mxGeometry>
        </mxCell>
        <mxCell id="5dKNIXLteJBeE0hhN2YT-50" value="Codziennie" style="shape=umlActor;verticalLabelPosition=bottom;verticalAlign=top;html=1;outlineConnect=0;" vertex="1" parent="1">
          <mxGeometry x="690" y="310" width="30" height="60" as="geometry" />
        </mxCell>
        <mxCell id="5dKNIXLteJBeE0hhN2YT-53" value="Raport o stanie zdrowia pacjenta" style="ellipse;whiteSpace=wrap;html=1;" vertex="1" parent="1">
          <mxGeometry x="500" y="300" width="120" height="80" as="geometry" />
        </mxCell>
        <mxCell id="5dKNIXLteJBeE0hhN2YT-54" value="" style="endArrow=none;html=1;rounded=0;" edge="1" parent="1" source="5dKNIXLteJBeE0hhN2YT-53" target="5dKNIXLteJBeE0hhN2YT-50">
          <mxGeometry width="50" height="50" relative="1" as="geometry">
            <mxPoint x="570" y="370" as="sourcePoint" />
            <mxPoint x="520" y="350" as="targetPoint" />
          </mxGeometry>
        </mxCell>
        <mxCell id="5dKNIXLteJBeE0hhN2YT-55" value="" style="endArrow=none;html=1;rounded=0;" edge="1" parent="1" source="5dKNIXLteJBeE0hhN2YT-53" target="5dKNIXLteJBeE0hhN2YT-9">
          <mxGeometry width="50" height="50" relative="1" as="geometry">
            <mxPoint x="470" y="400" as="sourcePoint" />
            <mxPoint x="520" y="350" as="targetPoint" />
          </mxGeometry>
        </mxCell>
        <mxCell id="5dKNIXLteJBeE0hhN2YT-73" value="Include" style="edgeLabel;html=1;align=center;verticalAlign=middle;resizable=0;points=[];" vertex="1" connectable="0" parent="5dKNIXLteJBeE0hhN2YT-55">
          <mxGeometry x="-0.3517" y="1" relative="1" as="geometry">
            <mxPoint as="offset" />
          </mxGeometry>
        </mxCell>
        <mxCell id="5dKNIXLteJBeE0hhN2YT-56" value="Grafik lekarzy" style="ellipse;whiteSpace=wrap;html=1;" vertex="1" parent="1">
          <mxGeometry x="500" y="430" width="120" height="80" as="geometry" />
        </mxCell>
        <mxCell id="5dKNIXLteJBeE0hhN2YT-57" value="" style="endArrow=none;html=1;rounded=0;" edge="1" parent="1" source="5dKNIXLteJBeE0hhN2YT-56" target="5dKNIXLteJBeE0hhN2YT-3">
          <mxGeometry width="50" height="50" relative="1" as="geometry">
            <mxPoint x="590" y="580" as="sourcePoint" />
            <mxPoint x="640" y="530" as="targetPoint" />
          </mxGeometry>
        </mxCell>
        <mxCell id="5dKNIXLteJBeE0hhN2YT-60" value="Wyniki badań" style="ellipse;whiteSpace=wrap;html=1;" vertex="1" parent="1">
          <mxGeometry x="220" y="10" width="120" height="80" as="geometry" />
        </mxCell>
        <mxCell id="5dKNIXLteJBeE0hhN2YT-61" value="" style="endArrow=none;html=1;rounded=0;" edge="1" parent="1" source="5dKNIXLteJBeE0hhN2YT-1" target="5dKNIXLteJBeE0hhN2YT-60">
          <mxGeometry width="50" height="50" relative="1" as="geometry">
            <mxPoint x="370" y="330" as="sourcePoint" />
            <mxPoint x="420" y="280" as="targetPoint" />
          </mxGeometry>
        </mxCell>
        <mxCell id="5dKNIXLteJBeE0hhN2YT-62" value="Diagnosta&lt;br&gt;laboratoryjny" style="shape=umlActor;verticalLabelPosition=bottom;verticalAlign=top;html=1;outlineConnect=0;" vertex="1" parent="1">
          <mxGeometry x="690" y="30" width="30" height="60" as="geometry" />
        </mxCell>
        <mxCell id="5dKNIXLteJBeE0hhN2YT-64" value="" style="endArrow=none;html=1;rounded=0;" edge="1" parent="1" source="5dKNIXLteJBeE0hhN2YT-60" target="5dKNIXLteJBeE0hhN2YT-9">
          <mxGeometry width="50" height="50" relative="1" as="geometry">
            <mxPoint x="350" y="110" as="sourcePoint" />
            <mxPoint x="570" y="280" as="targetPoint" />
          </mxGeometry>
        </mxCell>
        <mxCell id="5dKNIXLteJBeE0hhN2YT-65" value="" style="endArrow=none;html=1;rounded=0;" edge="1" parent="1" source="5dKNIXLteJBeE0hhN2YT-60" target="5dKNIXLteJBeE0hhN2YT-62">
          <mxGeometry width="50" height="50" relative="1" as="geometry">
            <mxPoint x="520" y="330" as="sourcePoint" />
            <mxPoint x="570" y="280" as="targetPoint" />
          </mxGeometry>
        </mxCell>
        <mxCell id="5dKNIXLteJBeE0hhN2YT-66" value="" style="swimlane;startSize=0;" vertex="1" parent="1">
          <mxGeometry x="-21" y="-20" width="870" height="860" as="geometry" />
        </mxCell>
        <mxCell id="5dKNIXLteJBeE0hhN2YT-68" value="UD &quot;Nazwa systemu&quot;" style="shape=card;whiteSpace=wrap;html=1;direction=west;" vertex="1" parent="5dKNIXLteJBeE0hhN2YT-66">
          <mxGeometry width="150" height="60" as="geometry" />
        </mxCell>
        <mxCell id="5dKNIXLteJBeE0hhN2YT-23" value="Aktualizacja terminu telekonsultacji" style="rounded=0;whiteSpace=wrap;html=1;" vertex="1" parent="5dKNIXLteJBeE0hhN2YT-66">
          <mxGeometry x="360" y="210" width="120" height="60" as="geometry" />
        </mxCell>
        <mxCell id="5dKNIXLteJBeE0hhN2YT-1" value="Użytkownik &lt;br&gt;systemu" style="shape=umlActor;verticalLabelPosition=bottom;verticalAlign=top;html=1;outlineConnect=0;" vertex="1" parent="5dKNIXLteJBeE0hhN2YT-66">
          <mxGeometry x="40" y="180" width="30" height="60" as="geometry" />
        </mxCell>
        <mxCell id="5dKNIXLteJBeE0hhN2YT-75" value="Pełnomocnik" style="shape=umlActor;verticalLabelPosition=bottom;verticalAlign=top;html=1;outlineConnect=0;" vertex="1" parent="5dKNIXLteJBeE0hhN2YT-66">
          <mxGeometry x="40" y="340" width="30" height="60" as="geometry" />
        </mxCell>
        <mxCell id="5dKNIXLteJBeE0hhN2YT-76" value="Pacjent" style="shape=umlActor;verticalLabelPosition=bottom;verticalAlign=top;html=1;outlineConnect=0;" vertex="1" parent="5dKNIXLteJBeE0hhN2YT-66">
          <mxGeometry x="40" y="460" width="30" height="60" as="geometry" />
        </mxCell>
        <mxCell id="5dKNIXLteJBeE0hhN2YT-14" value="Rejestracja jako odbiorca usług telemedycznych" style="ellipse;whiteSpace=wrap;html=1;" vertex="1" parent="5dKNIXLteJBeE0hhN2YT-66">
          <mxGeometry x="240" y="520" width="120" height="80" as="geometry" />
        </mxCell>
        <mxCell id="5dKNIXLteJBeE0hhN2YT-19" value="Zapisanie na telekonsultację" style="ellipse;whiteSpace=wrap;html=1;" vertex="1" parent="5dKNIXLteJBeE0hhN2YT-66">
          <mxGeometry x="240" y="400" width="120" height="80" as="geometry" />
        </mxCell>
        <mxCell id="5dKNIXLteJBeE0hhN2YT-20" value="" style="endArrow=none;html=1;rounded=0;" edge="1" parent="5dKNIXLteJBeE0hhN2YT-66" source="5dKNIXLteJBeE0hhN2YT-19" target="5dKNIXLteJBeE0hhN2YT-1">
          <mxGeometry width="50" height="50" relative="1" as="geometry">
            <mxPoint x="190" y="360" as="sourcePoint" />
            <mxPoint x="240" y="310" as="targetPoint" />
          </mxGeometry>
        </mxCell>
        <mxCell id="5dKNIXLteJBeE0hhN2YT-81" value="" style="endArrow=classic;html=1;rounded=0;" edge="1" parent="5dKNIXLteJBeE0hhN2YT-66" target="5dKNIXLteJBeE0hhN2YT-75">
          <mxGeometry width="50" height="50" relative="1" as="geometry">
            <mxPoint x="55" y="460" as="sourcePoint" />
            <mxPoint x="371" y="310" as="targetPoint" />
          </mxGeometry>
        </mxCell>
        <mxCell id="5dKNIXLteJBeE0hhN2YT-83" value="" style="endArrow=classic;html=1;rounded=0;exitX=0.5;exitY=0;exitDx=0;exitDy=0;exitPerimeter=0;" edge="1" parent="5dKNIXLteJBeE0hhN2YT-66" source="5dKNIXLteJBeE0hhN2YT-75" target="5dKNIXLteJBeE0hhN2YT-1">
          <mxGeometry width="50" height="50" relative="1" as="geometry">
            <mxPoint x="321" y="360" as="sourcePoint" />
            <mxPoint x="371" y="310" as="targetPoint" />
          </mxGeometry>
        </mxCell>
        <mxCell id="5dKNIXLteJBeE0hhN2YT-84" value="" style="endArrow=none;html=1;rounded=0;entryX=0.012;entryY=0.322;entryDx=0;entryDy=0;entryPerimeter=0;" edge="1" parent="5dKNIXLteJBeE0hhN2YT-66" source="5dKNIXLteJBeE0hhN2YT-76" target="5dKNIXLteJBeE0hhN2YT-14">
          <mxGeometry width="50" height="50" relative="1" as="geometry">
            <mxPoint x="401" y="540" as="sourcePoint" />
            <mxPoint x="451" y="490" as="targetPoint" />
          </mxGeometry>
        </mxCell>
        <mxCell id="5dKNIXLteJBeE0hhN2YT-71" value="Extend" style="text;html=1;align=center;verticalAlign=middle;resizable=0;points=[];autosize=1;strokeColor=none;fillColor=none;" vertex="1" parent="1">
          <mxGeometry x="345" y="160" width="50" height="20" as="geometry" />
        </mxCell>
      </root>
    </mxGraphModel>
  </diagram>
</mxfile>
